<?xml version="1.0" encoding="utf-8"?>
<!-- Generator: Adobe Illustrator 19.0.0, SVG Export Plug-In . SVG Version: 6.00 Build 0)  -->
<svg version="1.1" id="Capa_1" xmlns="http://www.w3.org/2000/svg" xmlns:xlink="http://www.w3.org/1999/xlink" x="0px" y="0px"
	 width="248.6px" height="128.1px" viewBox="0 0 248.6 128.1" enable-background="new 0 0 248.6 128.1" xml:space="preserve">
<g id="XMLID_4_">
	<polygon id="XMLID_1_" fill="#FFFFFF" stroke="#000000" stroke-width="4" stroke-miterlimit="10" points="124.3,2 167.6,2 
		145.9,39.4 124.3,76.8 102.6,39.4 81,2 	"/>
	<circle id="XMLID_2_" cx="144.2" cy="39.5" r="22.5"/>
</g>
<g id="XMLID_31_">
	<path id="XMLID_32_" d="M3.2,105.5v-3.5h13.1v3.5c0,0.4-0.1,0.7-0.4,0.9c-0.3,0.3-0.6,0.4-0.9,0.4c-0.4,0-0.7-0.1-0.9-0.4
		c-0.3-0.3-0.4-0.6-0.4-0.9v-0.9H11v16.6c0,0.4-0.1,0.7-0.4,0.9c-0.3,0.3-0.6,0.4-0.9,0.4c-0.4,0-0.7-0.1-0.9-0.4
		c-0.3-0.3-0.4-0.6-0.4-0.9v-16.6H5.8v0.9c0,0.4-0.1,0.7-0.4,0.9c-0.3,0.3-0.6,0.4-0.9,0.4c-0.4,0-0.7-0.1-0.9-0.4
		C3.3,106.1,3.2,105.8,3.2,105.5z"/>
	<path id="XMLID_34_" d="M22.4,121.2v-19.2h9.2c1.1,0,2,0.4,2.7,1.2s1.2,1.7,1.2,2.8v1.5c0,1.1-0.4,2-1.1,2.8
		c-0.8,0.8-1.7,1.2-2.8,1.2h-1.7l5.3,9.1c0.2,0.3,0.2,0.5,0.2,0.8c0,0.4-0.1,0.7-0.4,0.9c-0.3,0.3-0.6,0.4-0.9,0.4
		c-0.5,0-0.9-0.2-1.2-0.7l-6.1-10.5H25v9.9c0,0.4-0.1,0.7-0.4,0.9c-0.3,0.3-0.6,0.4-0.9,0.4s-0.7-0.1-0.9-0.4
		C22.5,121.8,22.4,121.5,22.4,121.2z M25,108.7h6.6c0.4,0,0.7-0.1,0.9-0.4c0.3-0.3,0.4-0.6,0.4-0.9v-1.5c0-0.4-0.1-0.7-0.4-0.9
		c-0.3-0.3-0.6-0.4-0.9-0.4H25V108.7z"/>
	<path id="XMLID_37_" d="M42.7,101.9h10.5c0.3,0,0.6,0.1,0.9,0.4c0.3,0.3,0.4,0.6,0.4,0.9c0,0.4-0.1,0.7-0.4,0.9
		c-0.3,0.3-0.6,0.4-0.9,0.4h-3.9v15.3h3.9c0.4,0,0.7,0.1,0.9,0.4s0.4,0.6,0.4,0.9s-0.1,0.7-0.4,0.9c-0.3,0.3-0.6,0.4-0.9,0.4H42.7
		c-0.4,0-0.7-0.1-0.9-0.4c-0.3-0.3-0.4-0.6-0.4-0.9s0.1-0.7,0.4-0.9c0.3-0.3,0.6-0.4,0.9-0.4h4v-15.3h-4c-0.4,0-0.7-0.1-0.9-0.4
		c-0.3-0.3-0.4-0.6-0.4-0.9c0-0.4,0.1-0.7,0.4-0.9C42,102,42.4,101.9,42.7,101.9z"/>
	<path id="XMLID_39_" d="M60.6,120.6l5.2-17.8c0.2-0.6,0.6-1,1.3-1c0.6,0,1.1,0.3,1.2,0.8l5.2,18c0,0.1,0.1,0.3,0.1,0.4
		c0,0.4-0.1,0.7-0.4,0.9c-0.2,0.3-0.5,0.4-0.8,0.4c-0.7,0-1.1-0.3-1.3-0.9l-1-3.5h-5.9l-1.1,3.8c0,0.2-0.2,0.3-0.4,0.5
		c-0.2,0.1-0.5,0.2-0.7,0.2c-0.4,0-0.7-0.1-0.9-0.4c-0.2-0.3-0.4-0.6-0.4-0.9C60.6,121,60.6,120.8,60.6,120.6z M67.2,107.9l-2.2,7.4
		h4.4L67.2,107.9z"/>
	<path id="XMLID_42_" d="M92.8,103.2v19.2h-3.5l-7-16v14.7c0,0.4-0.1,0.7-0.4,0.9c-0.3,0.3-0.6,0.4-0.9,0.4s-0.7-0.1-0.9-0.4
		c-0.3-0.3-0.4-0.6-0.4-0.9v-19.2h3.4l7,15.9v-14.6c0-0.4,0.1-0.7,0.4-0.9c0.3-0.3,0.6-0.4,0.9-0.4s0.7,0.1,0.9,0.4
		S92.8,102.9,92.8,103.2z"/>
	<path id="XMLID_44_" d="M106.3,101.9h4.3c0.4,0,0.7,0.1,0.9,0.4c0.3,0.3,0.4,0.6,0.4,0.9c0,0.4-0.1,0.7-0.4,1s-0.6,0.4-0.9,0.4
		h-4.1c-0.4,0-0.8,0.2-1.1,0.6l-3.6,4.7c-0.3,0.4-0.5,0.9-0.5,1.5v7.2c0,0.4,0.1,0.7,0.4,0.9c0.3,0.3,0.6,0.4,0.9,0.4h5.3
		c0.4,0,0.7-0.1,0.9-0.4c0.3-0.3,0.4-0.6,0.4-0.9v-2.8h-2.7c-0.4,0-0.7-0.1-0.9-0.4c-0.2-0.3-0.4-0.6-0.4-0.9c0-0.4,0.1-0.7,0.4-0.9
		c0.2-0.3,0.6-0.4,0.9-0.4h5.3v5.4c0,1.1-0.4,2-1.1,2.8c-0.8,0.8-1.7,1.1-2.8,1.1h-5.3c-1.1,0-2-0.4-2.8-1.1
		c-0.8-0.8-1.2-1.7-1.2-2.8v-7.2c0-1.3,0.3-2.4,1-3.3l3.8-4.9c0.3-0.4,0.7-0.7,1.2-0.9S105.8,101.9,106.3,101.9z"/>
	<path id="XMLID_46_" d="M117.9,122.5v-19.2c0-0.4,0.1-0.7,0.4-0.9c0.3-0.3,0.6-0.4,0.9-0.4c0.4,0,0.7,0.1,0.9,0.4
		c0.3,0.3,0.4,0.6,0.4,0.9v16.6h9.2c0.4,0,0.7,0.1,0.9,0.4c0.3,0.3,0.4,0.6,0.4,0.9s-0.1,0.7-0.4,0.9c-0.3,0.3-0.6,0.4-0.9,0.4
		H117.9z"/>
	<path id="XMLID_48_" d="M148.8,104.5h-9.2v6.3h4c0.4,0,0.7,0.1,0.9,0.4s0.4,0.6,0.4,0.9c0,0.4-0.1,0.7-0.4,0.9
		c-0.3,0.3-0.6,0.4-0.9,0.4h-4v6.4h9.2c0.4,0,0.7,0.1,0.9,0.4c0.3,0.3,0.4,0.6,0.4,0.9s-0.1,0.7-0.4,0.9c-0.3,0.3-0.6,0.4-0.9,0.4
		h-11.8v-20.5h11.8c0.4,0,0.7,0.1,0.9,0.4c0.3,0.3,0.4,0.6,0.4,0.9c0,0.4-0.1,0.7-0.4,0.9C149.5,104.4,149.2,104.5,148.8,104.5z"/>
	<path id="XMLID_50_" d="M178.2,101.9h6.8c0.8,0,1.6,0.3,2.3,1c0.7,0.7,1.1,1.5,1.1,2.5c0,0.4-0.1,0.7-0.4,0.9
		c-0.3,0.3-0.6,0.4-0.9,0.4c-0.4,0-0.7-0.1-0.9-0.3s-0.3-0.6-0.5-1.1c-0.1-0.5-0.5-0.8-1-0.8h-6.4c-0.3,0-0.5,0.1-0.5,0.3
		c0,0.1,0.1,0.3,0.2,0.4l9.7,12.3c0.5,0.6,0.7,1.2,0.7,1.9c0,0.8-0.3,1.5-0.8,2c-0.6,0.6-1.2,0.9-1.9,0.9h-7c-0.9,0-1.7-0.4-2.4-1.1
		c-0.7-0.7-1-1.5-1-2.3c0-1,0.5-1.5,1.4-1.5c0.4,0,0.6,0.1,0.9,0.4c0.2,0.3,0.4,0.5,0.4,0.9c0,0.3,0.1,0.5,0.3,0.7
		c0.2,0.2,0.4,0.3,0.7,0.3h6.5c0.3,0,0.4-0.1,0.4-0.3c0-0.1-0.1-0.2-0.2-0.4l-9.6-12.3c-0.5-0.6-0.7-1.2-0.7-1.9
		c0-0.8,0.3-1.5,0.9-2.1S177.4,101.9,178.2,101.9z"/>
	<path id="XMLID_52_" d="M199.6,114.3h2.6c0.4,0,0.7,0.1,0.9,0.4s0.4,0.6,0.4,0.9v2.2c0,0.4-0.1,0.7-0.4,0.9
		c-0.3,0.3-0.6,0.4-0.9,0.4h-2.7c-0.4,0-0.7-0.1-0.9-0.4c-0.3-0.3-0.4-0.6-0.4-0.9v-2.2c0-0.4,0.1-0.7,0.4-0.9
		C198.9,114.4,199.2,114.3,199.6,114.3z"/>
	<path id="XMLID_54_" d="M213.6,120.6l5.2-17.8c0.2-0.6,0.6-1,1.3-1c0.6,0,1.1,0.3,1.2,0.8l5.2,18c0,0.1,0.1,0.3,0.1,0.4
		c0,0.4-0.1,0.7-0.4,0.9c-0.2,0.3-0.5,0.4-0.8,0.4c-0.7,0-1.1-0.3-1.3-0.9l-1-3.5h-5.9l-1.1,3.8c0,0.2-0.2,0.3-0.4,0.5
		c-0.2,0.1-0.5,0.2-0.7,0.2c-0.4,0-0.7-0.1-0.9-0.4c-0.2-0.3-0.4-0.6-0.4-0.9C213.5,121,213.6,120.8,213.6,120.6z M220.1,107.9
		l-2.2,7.4h4.4L220.1,107.9z"/>
	<path id="XMLID_57_" d="M237.9,114.3h2.6c0.4,0,0.7,0.1,0.9,0.4s0.4,0.6,0.4,0.9v2.2c0,0.4-0.1,0.7-0.4,0.9
		c-0.3,0.3-0.6,0.4-0.9,0.4h-2.7c-0.4,0-0.7-0.1-0.9-0.4c-0.3-0.3-0.4-0.6-0.4-0.9v-2.2c0-0.4,0.1-0.7,0.4-0.9
		C237.2,114.4,237.5,114.3,237.9,114.3z"/>
</g>
</svg>
