<?xml version="1.0" encoding="utf-8"?>
<!-- Generator: Adobe Illustrator 19.0.0, SVG Export Plug-In . SVG Version: 6.00 Build 0)  -->
<svg version="1.1" id="Capa_1" xmlns="http://www.w3.org/2000/svg" xmlns:xlink="http://www.w3.org/1999/xlink" x="0px" y="0px"
	 width="274px" height="181.8px" viewBox="0 0 274 181.8" enable-background="new 0 0 274 181.8" xml:space="preserve">
<g id="XMLID_46_">
	<path id="XMLID_47_" d="M124.3,25.4c-0.2-1-0.6-4.1-1-9.3c-6.1-1.8-11.5-2.7-16.1-2.7c-4.1,0-7.8,0.7-11,2
		c-3.3,1.4-6.2,3.4-8.5,5.9c-2.4,2.6-4.3,5.8-5.6,9.3c-1.4,3.7-2.1,7.9-2.1,12.5c0,4.7,0.7,8.9,2.1,12.6c1.5,3.9,3.3,7,5.4,9.3
		c2.3,2.5,5,4.4,8.2,5.8c3,1.3,6.3,2,10,2c2.2,0,4.1-0.1,5.8-0.3c1.8-0.2,3.4-0.6,4.8-1c1.3-0.5,2.7-1.1,4.1-2
		c1.2-0.7,2.4-1.7,3.8-3c0.2-0.2,0.7-0.5,1.3-0.8c0.3-0.2,0.8-0.2,1.4-0.2c0.9,0,1.7,0.3,2.2,0.9l6.2,6.8c-3.4,4.3-7.6,7.5-12.6,9.7
		c-5.1,2.3-11.2,3.4-18.1,3.4c-6,0-11.6-1.1-16.8-3.3c-5.1-2.2-9.4-5.1-12.8-8.9c-3.7-4-6.4-8.5-8.2-13.6c-1.9-5.3-2.8-11-2.8-17.3
		c0-6.5,1-12.3,3.1-17.5c2.1-5.2,5.1-9.7,8.9-13.5c4-4,8.5-7,13.6-9C94.9,1,100.8,0,107.3,0c7.2,0,16,2,26.5,6.1v21.5H127
		C125.6,27.5,124.7,26.8,124.3,25.4z"/>
	<path id="XMLID_49_" d="M210.3,60.4c0,3.6-0.7,6.9-2.1,9.9c-1.4,3.1-3.4,5.8-5.9,7.9c-2.4,2.1-5.6,3.8-9.6,5.1
		c-3.7,1.2-8.1,1.9-13.1,1.9H139v-6.9c0-1.9,1-3.1,2.9-3.6l0.7-0.1c0.2,0,0.5,0,0.8-0.1c0.3-0.1,0.6-0.2,1-0.2l3.5-0.6V12.5
		l-3.5-0.6c-0.4-0.1-0.7-0.2-1-0.2c-0.3-0.1-0.5-0.1-0.8-0.1l-0.7-0.1C140,11,139,9.8,139,7.8V0.9h37.9c5.6,0,10.3,0.5,14.1,1.5
		c4,1.1,7.3,2.6,9.7,4.5c2.5,1.9,4.3,4.3,5.5,7.1s1.7,5.9,1.7,9.2c0,2.1-0.3,4-0.8,5.7c-0.5,1.7-1.5,3.4-2.8,5.1
		c-1.2,1.4-2.7,2.8-4.7,4.2c-1.7,1.2-3.9,2.3-6.6,3.3C204.6,44.2,210.3,50.5,210.3,60.4z M176.1,37.4c5.4,0,9.4-1,12.1-2.9
		c2.7-1.9,4.1-5.1,4.1-9.3c0-4.4-1.2-7.5-3.7-9.3c-2.4-1.9-6.3-2.8-11.7-2.8h-13.4v24.4H176.1z M194.8,60.1c0-1.6-0.3-3.3-0.9-4.9
		c-0.6-1.6-1.5-2.8-2.7-3.7c-1.2-0.9-2.8-1.7-4.8-2.3c-1.9-0.5-4.2-0.8-7.1-0.8h-15.9V73h16c3,0,5.4-0.4,7.3-1
		c1.9-0.7,3.5-1.6,4.7-2.8c1.2-1.2,2.1-2.6,2.6-4.1C194.6,63.7,194.8,62,194.8,60.1z"/>
</g>
<g id="XMLID_1_">
	<path id="XMLID_4_" d="M27.5,132c-3.1,3.2-7,4.8-11.9,4.8c-3.1,0-5.9-0.7-8.2-2.2s-4.2-3.5-5.4-6.1C0.6,125.9,0,123,0,119.8
		c0-3.3,0.7-6.3,2-8.8c1.4-2.6,3.3-4.6,5.7-6c2.5-1.4,5.3-2.1,8.5-2.1c3.2,0,6.7,0.8,10.6,2.3v7.4h-1.1c-0.6,0-1-0.4-1-1.1l-0.2-5
		c-2.9-1.1-5.6-1.6-8.2-1.6c-2.8,0-5.2,0.6-7.3,1.9s-3.7,3-4.8,5.3c-1.1,2.3-1.7,4.8-1.7,7.7c0,2.9,0.5,5.5,1.6,7.8
		c1.1,2.3,2.6,4,4.7,5.3c2,1.3,4.3,1.9,7,1.9c2,0,3.8-0.3,5.4-0.9c1.6-0.6,3.1-1.5,4.5-2.8c0.2-0.2,0.3-0.2,0.5-0.2
		c0.1,0,0.3,0.1,0.4,0.2L27.5,132z"/>
	<path id="XMLID_6_" d="M48.8,115.9c1.9,2.2,2.8,5.1,2.8,8.8c0,3.7-0.9,6.6-2.8,8.7c-1.9,2.2-4.5,3.2-7.8,3.2c-3.4,0-6-1.1-7.9-3.3
		c-1.9-2.2-2.8-5.1-2.8-8.7c0-3.6,0.9-6.6,2.8-8.8s4.5-3.3,7.9-3.3C44.3,112.6,46.9,113.7,48.8,115.9z M47.2,132.2
		c1.4-1.8,2.1-4.3,2.1-7.5c0-3.1-0.7-5.6-2.1-7.5s-3.5-2.8-6.2-2.8c-2.8,0-4.9,0.9-6.3,2.7c-1.4,1.8-2.1,4.3-2.1,7.5
		c0,3.2,0.7,5.7,2.1,7.5c1.4,1.8,3.5,2.7,6.3,2.7C43.8,134.9,45.8,134,47.2,132.2z"/>
	<path id="XMLID_9_" d="M81,135.4v0.9h-5.6v-14.9c0-2.2-0.5-3.9-1.5-5.1c-1-1.2-2.5-1.9-4.6-1.9c-3,0-5.6,1.5-7.8,4.4v15.6l2.5,0.1
		c0.6,0,0.9,0.3,0.9,0.8v0.9h-9v-0.9c0-0.5,0.3-0.8,0.9-0.8l2.5-0.1v-19.7l-2.5-0.1c-0.3,0-0.5-0.1-0.7-0.2
		c-0.1-0.1-0.2-0.3-0.2-0.6V113h4.7c0.4,0,0.7,0.2,0.7,0.6l0.2,3.6c2.3-3,5.2-4.5,8.5-4.5c2.5,0,4.5,0.8,5.8,2.3
		c1.3,1.6,2,3.7,2,6.4v13.1l2.4,0.1C80.7,134.7,81,134.9,81,135.4z"/>
	<path id="XMLID_11_" d="M98.9,134.8c-1.5,1.3-3.5,2-5.9,2c-2.3,0-4.6-0.4-6.9-1.3v-5.7h1.1c0.7,0,1,0.4,1,1.1l0.3,3.5
		c1.2,0.5,2.7,0.8,4.6,0.8c1.7,0,3.2-0.5,4.3-1.4c1.1-0.9,1.7-2.2,1.7-3.8c0-1.3-0.5-2.3-1.6-2.9c-1-0.7-2.7-1.3-5-2
		c-2.1-0.6-3.7-1.3-4.8-2.2c-1.1-0.9-1.6-2.2-1.6-3.8c0-1.3,0.4-2.4,1.1-3.3c0.7-1,1.6-1.7,2.8-2.2c1.2-0.5,2.5-0.8,3.8-0.8
		c1.8,0,3.9,0.4,6.2,1.2v5.6h-1.1c-0.6,0-1-0.4-1-1.1l-0.3-3.4c-1.2-0.4-2.5-0.6-3.7-0.6c-1.5,0-2.9,0.4-4,1.2
		c-1.1,0.8-1.7,1.9-1.7,3.2c0,0.8,0.3,1.6,0.8,2.1s1.2,1,2.1,1.4c0.9,0.4,2.1,0.8,3.6,1.2c2.1,0.6,3.7,1.4,4.8,2.3s1.7,2.2,1.7,3.7
		C101.2,131.7,100.4,133.5,98.9,134.8z"/>
	<path id="XMLID_13_" d="M109,135.4c-0.8-0.9-1.3-2.2-1.3-4v-16h-3.3c-0.2,0-0.3,0-0.4-0.1c-0.1-0.1-0.2-0.2-0.2-0.4V114l4-0.3
		l0.6-8.4c0-0.1,0.1-0.3,0.2-0.4c0.1-0.1,0.2-0.2,0.4-0.2h1.1v8.9h7.4v1.7H110v15.8c0,1.2,0.3,2.1,0.9,2.7s1.4,1,2.4,1
		c0.9,0,2-0.4,3.2-1.3c0.2-0.1,0.3-0.1,0.4-0.1c0.2,0,0.4,0.1,0.5,0.3l0.5,0.8c-0.6,0.7-1.4,1.2-2.3,1.6c-1,0.4-1.9,0.6-2.8,0.6
		C111.1,136.8,109.9,136.3,109,135.4z"/>
	<path id="XMLID_15_" d="M138.9,113.5l-0.4,1.2c-0.1,0.3-0.2,0.4-0.4,0.6c-0.2,0.1-0.4,0.2-0.7,0.1c-0.4-0.2-0.8-0.3-1.2-0.4
		s-0.8-0.1-1.3-0.1c-1.8,0-3.2,0.5-4.4,1.6c-1.2,1.1-2.1,2.7-2.8,4.7v13.3l2.5,0.1c0.3,0,0.5,0.1,0.7,0.2c0.1,0.1,0.2,0.3,0.2,0.6
		v0.9h-9v-0.9c0-0.3,0.1-0.5,0.2-0.6s0.4-0.2,0.7-0.2l2.5-0.1v-19.7l-2.5-0.1c-0.3,0-0.5-0.1-0.7-0.2c-0.1-0.1-0.2-0.3-0.2-0.6V113
		h4.6c0.3,0,0.5,0,0.6,0.1c0.1,0.1,0.2,0.3,0.2,0.6l0.2,5c1.6-4,4.1-6.1,7.7-6.1C136.6,112.6,137.8,112.9,138.9,113.5z"/>
	<path id="XMLID_17_" d="M166.3,135.4v0.9h-4.6c-0.5,0-0.7-0.2-0.7-0.6l-0.2-3.5c-1.1,1.4-2.4,2.5-3.9,3.3c-1.4,0.8-3,1.2-4.7,1.2
		c-2.5,0-4.5-0.8-5.8-2.4c-1.3-1.6-2-3.7-2-6.4v-13.1l-2.4-0.1c-0.6-0.1-0.9-0.3-0.9-0.8V113h3.4l2.3,0v14.9c0,2.2,0.5,4,1.5,5.2
		c1,1.2,2.5,1.9,4.6,1.9c1.5,0,2.9-0.4,4.2-1.2c1.3-0.8,2.5-1.9,3.6-3.2v-15.7l-2.4-0.1c-0.6-0.1-0.9-0.3-0.9-0.8V113h3.4l2.3,0
		v21.5l2.4,0.1C166,134.7,166.3,134.9,166.3,135.4z"/>
	<path id="XMLID_19_" d="M184.6,135.9c-1.5,0.6-3,0.8-4.5,0.8c-2.1,0-3.9-0.5-5.4-1.6c-1.5-1-2.7-2.5-3.5-4.3
		c-0.8-1.8-1.2-3.9-1.2-6.2c0-2.3,0.4-4.4,1.2-6.2c0.8-1.8,2-3.2,3.6-4.3c1.6-1,3.5-1.5,5.7-1.5c2,0,4.2,0.5,6.6,1.5v5.9h-1.1
		c-0.6,0-1-0.4-1-1.1c0-0.1,0-0.5-0.1-1.1c-0.1-0.6-0.1-1.5-0.2-2.6c-1.5-0.5-2.9-0.8-4-0.8c-2.7,0-4.8,0.9-6.2,2.8
		c-1.4,1.9-2.2,4.4-2.2,7.5c0,3.1,0.7,5.5,2.1,7.4c1.4,1.9,3.4,2.8,6,2.8c1.1,0,2.2-0.2,3.3-0.6c1.1-0.4,2-0.9,2.6-1.5
		c0.3-0.3,0.5-0.4,0.7-0.4c0.2,0,0.3,0.1,0.4,0.2l0.6,0.8C187.2,134.5,186,135.3,184.6,135.9z"/>
	<path id="XMLID_21_" d="M195.8,135.4c-0.8-0.9-1.3-2.2-1.3-4v-16h-3.3c-0.2,0-0.3,0-0.4-0.1c-0.1-0.1-0.2-0.2-0.2-0.4V114l4-0.3
		l0.6-8.4c0-0.1,0.1-0.3,0.2-0.4c0.1-0.1,0.2-0.2,0.4-0.2h1.1v8.9h7.4v1.7h-7.4v15.8c0,1.2,0.3,2.1,0.9,2.7s1.4,1,2.4,1
		c0.9,0,2-0.4,3.2-1.3c0.2-0.1,0.3-0.1,0.4-0.1c0.2,0,0.4,0.1,0.5,0.3l0.5,0.8c-0.6,0.7-1.4,1.2-2.3,1.6c-1,0.4-1.9,0.6-2.8,0.6
		C197.9,136.8,196.7,136.3,195.8,135.4z"/>
	<path id="XMLID_23_" d="M226.8,115.9c1.9,2.2,2.8,5.1,2.8,8.8c0,3.7-0.9,6.6-2.8,8.7c-1.9,2.2-4.5,3.2-7.8,3.2
		c-3.4,0-6-1.1-7.9-3.3c-1.9-2.2-2.8-5.1-2.8-8.7c0-3.6,0.9-6.6,2.8-8.8s4.5-3.3,7.9-3.3C222.3,112.6,224.9,113.7,226.8,115.9z
		 M225.2,132.2c1.4-1.8,2.1-4.3,2.1-7.5c0-3.1-0.7-5.6-2.1-7.5s-3.5-2.8-6.2-2.8c-2.8,0-4.9,0.9-6.3,2.7c-1.4,1.8-2.1,4.3-2.1,7.5
		c0,3.2,0.7,5.7,2.1,7.5c1.4,1.8,3.5,2.7,6.3,2.7C221.8,134.9,223.8,134,225.2,132.2z"/>
	<path id="XMLID_26_" d="M250.6,113.5l-0.4,1.2c-0.1,0.3-0.2,0.4-0.4,0.6c-0.2,0.1-0.4,0.2-0.7,0.1c-0.4-0.2-0.8-0.3-1.2-0.4
		s-0.8-0.1-1.3-0.1c-1.8,0-3.2,0.5-4.4,1.6c-1.2,1.1-2.1,2.7-2.8,4.7v13.3l2.5,0.1c0.3,0,0.5,0.1,0.7,0.2c0.1,0.1,0.2,0.3,0.2,0.6
		v0.9h-9v-0.9c0-0.3,0.1-0.5,0.2-0.6s0.4-0.2,0.7-0.2l2.5-0.1v-19.7l-2.5-0.1c-0.3,0-0.5-0.1-0.7-0.2c-0.1-0.1-0.2-0.3-0.2-0.6V113
		h4.6c0.3,0,0.5,0,0.6,0.1c0.1,0.1,0.2,0.3,0.2,0.6l0.2,5c1.6-4,4.1-6.1,7.7-6.1C248.3,112.6,249.5,112.9,250.6,113.5z"/>
	<path id="XMLID_28_" d="M274,135.4v0.9h-4c-0.5,0-0.8-0.2-0.9-0.7l-0.3-3c-1.6,1.5-3,2.5-4.2,3.1c-1.2,0.6-2.7,0.9-4.5,0.9
		c-1.9,0-3.4-0.5-4.5-1.6c-1.1-1.1-1.7-2.6-1.7-4.4c0-2.5,1.5-4.3,4.5-5.4s6.5-1.7,10.4-1.7v-2.4c0-2.2-0.5-3.9-1.4-5
		c-0.9-1.1-2.3-1.7-4.2-1.7c-1.1,0-2.3,0.2-3.4,0.7c-1.2,0.5-2.1,1.1-2.8,1.8c-0.3,0.3-0.7,0.5-1,0.5c-0.3,0-0.5-0.1-0.6-0.4
		l-0.4-0.7c1.3-1.3,2.6-2.2,3.9-2.8c1.4-0.6,2.9-0.9,4.5-0.9c2.5,0,4.3,0.8,5.6,2.3c1.3,1.5,1.9,3.6,1.9,6.2v13.4l2.2,0
		C273.6,134.7,274,134.9,274,135.4z M259.7,126.4c-2.6,0.8-3.8,2.2-3.8,4.3c0,1.4,0.4,2.5,1.2,3.3c0.8,0.8,2,1.2,3.4,1.2
		c1.7,0,3.1-0.3,4.3-0.9c1.1-0.6,2.4-1.6,3.8-3v-6.1C265.3,125.1,262.3,125.6,259.7,126.4z"/>
	<path id="XMLID_31_" d="M107.5,171.8c0,3-1.1,5.4-3.3,7.1c-2.2,1.7-5,2.5-8.5,2.5H80.4v-2.1c0-0.5,0.2-0.8,0.7-0.8l2.7-0.6v-26.7
		l-2.7-0.6c-0.5-0.1-0.7-0.4-0.7-0.8v-2.1h14.1c3.7,0,6.6,0.7,8.7,2.1c2.1,1.4,3.2,3.5,3.2,6.4c0,2-0.5,3.7-1.5,5s-2.6,2.3-4.7,2.9
		C105,165.1,107.5,167.6,107.5,171.8z M94.3,162.8c2.4,0,4.2-0.5,5.5-1.4c1.3-0.9,2-2.3,2-4.3c0-2-0.6-3.5-1.9-4.4s-3.1-1.3-5.5-1.3
		h-6.2v11.4H94.3z M101,167.4c-1.3-0.9-3.1-1.4-5.4-1.4h-7.3v11.7h7.3c2.5,0,4.3-0.5,5.5-1.5c1.2-1,1.8-2.6,1.8-4.5
		C103,169.8,102.3,168.3,101,167.4z"/>
	<path id="XMLID_35_" d="M131.1,178.7c0.1,0.2,0.2,0.4,0.2,0.6v2h-4.9c-0.3,0-0.6-0.1-1-0.2c-0.2-0.1-0.4-0.3-0.5-0.8l-0.5-2.3
		l-1.9,1.5c-0.5,0.4-1.2,0.8-1.9,1.1c-0.7,0.3-1.4,0.5-2.1,0.7c-0.6,0.2-1.5,0.2-2.5,0.2c-0.9,0-1.7-0.1-2.5-0.4
		c-1-0.3-1.7-0.7-2.1-1.1c-0.6-0.5-1-1.2-1.4-2c-0.3-0.7-0.5-1.7-0.5-2.8c0-1,0.3-1.9,0.8-2.7c0.6-0.9,1.4-1.7,2.5-2.3
		c1.3-0.7,2.8-1.3,4.5-1.7c1.8-0.4,4.1-0.6,6.9-0.6v-1.8c0-1.8-0.4-3.3-1.2-4.2c-0.8-1-2-1.5-3.5-1.5c-1,0-1.9,0.1-2.6,0.4
		c-0.8,0.3-1.4,0.6-1.8,0.8c-0.2,0.1-0.4,0.3-0.6,0.4c-0.2,0.1-0.5,0.3-0.7,0.4c-0.3,0.3-0.7,0.4-1.1,0.4c-0.3,0-0.6-0.1-0.8-0.2
		c-0.2-0.2-0.3-0.3-0.5-0.6l-0.8-1.3c1.2-1.2,2.6-2.1,4.2-2.8c1.4-0.6,3.1-0.9,5.1-0.9c1.4,0,2.6,0.2,3.6,0.7
		c1.1,0.5,1.9,1.1,2.6,1.8c0.7,0.7,1.2,1.7,1.6,2.8c0.3,1,0.5,2.3,0.5,3.7V178c1.5,0.3,2.3,0.5,2.3,0.5v-0.1
		C130.8,178.4,131,178.5,131.1,178.7z M119.2,171c-1.2,0.2-2.3,0.5-3.3,1c-0.9,0.4-1.5,0.9-1.9,1.4c-0.4,0.6-0.6,1.2-0.6,1.8
		c0,0.5,0.1,1,0.3,1.6c0.2,0.5,0.5,0.8,0.8,1.1c0.4,0.3,0.8,0.5,1.2,0.6c0.5,0.2,1,0.2,1.6,0.2c0.6,0,1.3-0.1,2-0.2
		c0.6-0.2,1.2-0.4,1.7-0.6c0.5-0.2,1-0.6,1.5-1c0.3-0.3,0.8-0.7,1.4-1.3v-4.9C122.1,170.7,120.4,170.8,119.2,171z"/>
	<path id="XMLID_38_" d="M156.9,169.5c0,2-0.3,3.7-0.8,5.2c-0.6,1.6-1.3,2.9-2.3,3.9c-0.9,1-2,1.8-3.3,2.3c-1.3,0.6-2.6,0.8-4.1,0.8
		c-2.7,0-6.2-0.4-10.5-1.3v-30.3l-1-0.1l-2-0.3c-0.2,0-0.4-0.1-0.5-0.3s-0.2-0.4-0.2-0.6v-2h7.9V161c1-1.2,2.1-2.1,3.4-2.8
		c1.3-0.7,2.7-1,4.3-1c1.4,0,2.7,0.3,3.8,0.8s2,1.3,2.8,2.3c0.8,1.1,1.4,2.3,1.8,3.8c0.4,1.6,0.7,3.3,0.7,5.3h0.1V169.5z
		 M152.1,173.2c0.3-1.2,0.5-2.3,0.5-3.6v-0.4c0-1.6-0.1-2.9-0.4-3.9c-0.3-1.1-0.7-2-1.2-2.7c-0.6-0.8-1.2-1.3-1.9-1.6
		c-0.7-0.3-1.6-0.5-2.6-0.5c-1.4,0-2.6,0.3-3.6,0.9c-1,0.7-2,1.6-2.8,2.7v13.6c0.4,0.1,1.1,0.3,2,0.4c0.9,0.2,1.8,0.3,2.7,0.3h1.2
		c1-0.1,1.9-0.3,2.5-0.6c0.8-0.4,1.5-1,2.2-1.8l0-0.1C151.3,175.3,151.7,174.3,152.1,173.2z"/>
	<path id="XMLID_41_" d="M174.7,157.9c1.3,0.5,2.3,1.1,3.1,2c0.9,1,1.6,2.1,2.1,3.3c0.5,1.4,0.8,2.9,0.8,4.5c0,0.7-0.1,1.2-0.2,1.3
		c-0.2,0.2-0.4,0.3-0.8,0.3h-15.8c0,1.5,0.2,2.8,0.6,3.9c0.3,1,0.8,1.9,1.6,2.7c0.7,0.8,1.5,1.3,2.3,1.7c0.9,0.4,1.9,0.6,3,0.6
		c1.1,0,2-0.1,2.7-0.3c0.7-0.2,1.3-0.5,2-0.8c0.7-0.3,1.2-0.6,1.4-0.8c0.4-0.3,0.7-0.4,0.9-0.4c0.3,0,0.6,0.1,0.8,0.4l1.2,1.6
		c-0.4,0.6-1.1,1.1-1.9,1.6c-0.9,0.6-1.7,1-2.3,1.2c-0.9,0.3-1.8,0.5-2.5,0.7c-0.9,0.2-1.8,0.2-2.6,0.2c-1.6,0-3.1-0.3-4.6-0.8
		c-1.3-0.5-2.6-1.4-3.6-2.5c-1-1-1.8-2.4-2.3-4c-0.6-1.6-0.8-3.4-0.8-5.4c0-1.6,0.3-3.2,0.8-4.6c0.5-1.5,1.3-2.7,2.2-3.8
		c1-1.1,2.1-1.9,3.5-2.5s2.9-0.9,4.6-0.9C172.1,157.2,173.4,157.5,174.7,157.9z M166.1,162c-1.2,1.2-1.9,2.9-2.2,4.9h12.9
		c0-1-0.1-1.8-0.4-2.6c-0.3-1-0.7-1.7-1.1-2.1c-0.5-0.6-1.2-1-1.9-1.4c-0.7-0.3-1.6-0.5-2.6-0.5l0,0
		C168.8,160.3,167.2,160.9,166.1,162z"/>
	<path id="XMLID_44_" d="M194.3,179.4v2h-11v-2c0-0.5,0.3-0.8,0.8-0.9l2.6-0.5v-27.8c-1.4-0.3-2.3-0.5-2.6-0.6
		c-0.5-0.1-0.8-0.4-0.8-0.8v-2h7.6v31.1c1.4,0.3,2.3,0.5,2.6,0.6C194,178.6,194.3,178.9,194.3,179.4z"/>
</g>
</svg>
